<?xml version="1.0" standalone="no"?>
<!DOCTYPE svg PUBLIC "-//W3C//DTD SVG 20010904//EN"
 "http://www.w3.org/TR/2001/REC-SVG-20010904/DTD/svg10.dtd">
<svg version="1.0" xmlns="http://www.w3.org/2000/svg"
 width="40.000000pt" height="40.000000pt" viewBox="0 0 40.000000 40.000000"
 preserveAspectRatio="xMidYMid meet">

<g transform="translate(0.000000,40.000000) scale(0.100000,-0.100000)"
fill="#000000" stroke="none">
<path d="M12 368 c-18 -18 -14 -46 7 -58 26 -13 336 -13 362 0 21 12 25 40 7
58 -17 17 -359 17 -376 0z"/>
<path d="M12 228 c-7 -7 -12 -20 -12 -29 0 -35 23 -40 205 -37 157 3 179 5
189 21 8 12 8 22 0 35 -10 15 -32 17 -190 20 -131 2 -183 -1 -192 -10z"/>
<path d="M17 89 c-20 -12 -22 -40 -5 -57 17 -17 359 -17 376 0 18 18 14 46 -7
58 -26 13 -340 13 -364 -1z"/>
</g>
</svg>
